<svg width="137" height="54" viewBox="0 0 137 54" fill="none" xmlns="http://www.w3.org/2000/svg">
<path d="M0 0H137V53H0V0Z" fill="#F77831"/>
<g filter="url(#filter0_d_1_37)">
<path d="M23.4017 13.36C23.6684 13.84 23.8417 14.3067 23.9217 14.76C24.0017 15.1867 24.0417 15.9333 24.0417 17C24.0417 18.0667 23.7084 20.88 23.0417 25.44L22.5217 29.04C30.7084 22.3467 35.7751 16.68 37.7217 12.04C38.3351 13.2667 38.6417 14.6533 38.6417 16.2C38.6417 17.72 37.8551 19.3067 36.2817 20.96C34.7084 22.6133 32.3884 24.5333 29.3217 26.72C30.8151 31.3867 32.2951 34.9867 33.7617 37.52C35.2284 40.0267 37.1084 42.4933 39.4017 44.92C38.8684 45.1867 38.1617 45.32 37.2817 45.32C36.4017 45.32 35.4417 45 34.4017 44.36C33.3884 43.72 32.4817 42.92 31.6817 41.96C30.9084 41 30.1217 39.76 29.3217 38.24C28.0951 35.9467 26.8284 33 25.5217 29.4C25.3884 29.5067 24.8951 29.8533 24.0417 30.44C23.2151 31 22.5884 31.44 22.1617 31.76C21.6551 35.6267 21.4017 38.6267 21.4017 40.76C21.4017 42.8667 21.5884 44.36 21.9617 45.24C20.3084 44.6533 19.1351 43.8667 18.4417 42.88C17.7751 41.8667 17.4417 40.6933 17.4417 39.36C17.4417 38 17.7217 35.2533 18.2817 31.12C19.2684 24.2667 19.7617 18.96 19.7617 15.2C19.7617 14.4 19.7084 13.3067 19.6017 11.92C21.6284 12.0267 22.8951 12.5067 23.4017 13.36ZM55.4777 24.16C56.2777 24.88 57.1577 25.6 58.1177 26.32C59.1043 27.0133 60.0777 27.72 61.0377 28.44C62.0243 29.16 62.9177 29.8933 63.7177 30.64C65.531 32.32 66.4377 34.1733 66.4377 36.2C66.4377 38.7067 65.4777 40.8 63.5577 42.48C61.6643 44.16 59.1577 45 56.0377 45C52.9177 45 50.5177 44.2933 48.8377 42.88C47.1577 41.4667 46.3177 39.7867 46.3177 37.84C46.3177 36.4 46.7443 35.24 47.5977 34.36C48.451 33.4533 49.5577 33 50.9177 33C51.291 33 51.651 33.0533 51.9977 33.16C51.171 34.4133 50.7577 35.76 50.7577 37.2C50.7577 38.6133 51.251 39.8267 52.2377 40.84C53.2243 41.8533 54.7043 42.36 56.6777 42.36C58.091 42.36 59.3443 41.9333 60.4377 41.08C61.5577 40.2 62.1177 38.9867 62.1177 37.44C62.1177 36.4267 61.7843 35.44 61.1177 34.48C60.451 33.4933 59.6243 32.6267 58.6377 31.88C57.651 31.1333 56.571 30.3067 55.3977 29.4C54.2243 28.4667 53.1443 27.5733 52.1577 26.72C51.171 25.8667 50.3443 24.8267 49.6777 23.6C49.011 22.3733 48.6777 21.0933 48.6777 19.76C48.6777 17.2267 49.531 15.2267 51.2377 13.76C52.971 12.2667 55.4643 11.52 58.7177 11.52C61.3577 11.52 63.4243 12.2267 64.9177 13.64C66.4377 15.0267 67.1977 16.48 67.1977 18C67.1977 19.4933 66.7843 20.72 65.9577 21.68C65.1577 22.64 64.051 23.12 62.6377 23.12C62.1577 23.12 61.691 23.0667 61.2377 22.96C62.5443 21.5733 63.1977 20.1067 63.1977 18.56C63.1977 17.0133 62.7177 15.8533 61.7577 15.08C60.7977 14.28 59.571 13.88 58.0777 13.88C56.611 13.88 55.3577 14.3067 54.3177 15.16C53.2777 16.0133 52.7577 17.3067 52.7577 19.04C52.7577 20.7733 53.6643 22.48 55.4777 24.16ZM73.5539 42.24C73.5539 41.7333 74.2872 39.8533 75.7539 36.6C77.2206 33.32 78.9139 29.5733 80.8339 25.36C82.7806 21.12 84.1006 18.0933 84.7939 16.28L85.6739 14C85.2472 13.36 84.7806 12.7867 84.2739 12.28C85.1006 11.96 85.8872 11.8 86.6339 11.8C88.3139 11.8 89.6206 12.8667 90.5539 15C91.1406 16.36 91.9272 19.4 92.9139 24.12C92.9406 24.1733 92.9806 24.3467 93.0339 24.64C93.0872 24.9333 93.3539 26.2933 93.8339 28.72C94.3406 31.12 94.6872 32.72 94.8739 33.52C95.0606 34.2933 95.3806 35.4933 95.8339 37.12C96.5539 39.8667 97.4606 42 98.5539 43.52C97.3006 44.2667 96.2606 44.64 95.4339 44.64C94.6339 44.64 94.0472 44.4 93.6739 43.92C93.3272 43.4133 92.9939 42.6533 92.6739 41.64C92.3806 40.6 91.7406 37.7333 90.7539 33.04C90.1672 33.9467 88.9939 34.4267 87.2339 34.48L80.1139 34.76C78.5939 38.8667 77.4872 42.3867 76.7939 45.32C74.6339 44.4133 73.5539 43.3867 73.5539 42.24ZM87.0739 17.56C84.0072 24.84 82.0472 29.5733 81.1939 31.76H90.4739C89.2206 25.6533 88.0872 20.92 87.0739 17.56ZM105.895 39.72C105.895 40.68 106.148 41.4933 106.655 42.16C107.162 42.8267 107.828 43.16 108.655 43.16C109.508 43.16 110.202 43.04 110.735 42.8C111.295 42.5333 111.762 42.1333 112.135 41.6C112.508 41.04 112.828 40.4267 113.095 39.76C113.362 39.0933 113.575 38.2533 113.735 37.24C113.895 36.2 114.015 35.1733 114.095 34.16C114.202 33.1467 114.282 31.9333 114.335 30.52C114.415 29.08 114.468 27.7333 114.495 26.48C114.628 22.9067 114.788 19.7867 114.975 17.12C113.802 17.1733 113.055 17.2 112.735 17.2C111.215 17.2 110.455 16.4267 110.455 14.88C110.455 14.24 110.535 13.6 110.695 12.96C112.535 13.3867 114.655 13.6 117.055 13.6C119.482 13.6 122.095 13.1733 124.895 12.32C124.762 13.6 124.255 14.6 123.375 15.32C122.522 16.0133 121.655 16.4267 120.775 16.56C120.268 16.6667 119.802 16.7333 119.375 16.76C118.815 22.3333 118.415 26.8267 118.175 30.24C117.962 33.6533 117.575 36.3467 117.015 38.32C116.455 40.2667 115.735 41.7467 114.855 42.76C113.975 43.7467 113.055 44.44 112.095 44.84C111.162 45.24 110.108 45.44 108.935 45.44C106.588 45.44 104.815 44.7867 103.615 43.48C102.415 42.1467 101.815 40.56 101.815 38.72C101.815 37.44 102.202 36.3333 102.975 35.4C103.722 34.44 104.775 33.96 106.135 33.96C106.828 33.96 107.482 34.1733 108.095 34.6C107.402 35.1867 106.855 35.9467 106.455 36.88C106.082 37.8133 105.895 38.76 105.895 39.72Z" fill="#FCF9F9"/>
</g>
<defs>
<filter id="filter0_d_1_37" x="13.4417" y="11.52" width="115.453" height="41.92" filterUnits="userSpaceOnUse" color-interpolation-filters="sRGB">
<feFlood flood-opacity="0" result="BackgroundImageFix"/>
<feColorMatrix in="SourceAlpha" type="matrix" values="0 0 0 0 0 0 0 0 0 0 0 0 0 0 0 0 0 0 127 0" result="hardAlpha"/>
<feOffset dy="4"/>
<feGaussianBlur stdDeviation="2"/>
<feComposite in2="hardAlpha" operator="out"/>
<feColorMatrix type="matrix" values="0 0 0 0 0 0 0 0 0 0 0 0 0 0 0 0 0 0 0.25 0"/>
<feBlend mode="normal" in2="BackgroundImageFix" result="effect1_dropShadow_1_37"/>
<feBlend mode="normal" in="SourceGraphic" in2="effect1_dropShadow_1_37" result="shape"/>
</filter>
</defs>
</svg>
